<svg width="24" height="25" viewBox="0 0 24 25" fill="none" xmlns="http://www.w3.org/2000/svg">
<path d="M3.17017 7.53296L12.0002 12.6429L20.7701 7.56293" stroke="#2B2945" stroke-width="1.5" stroke-linecap="round" stroke-linejoin="round"/>
<path d="M12.0002 21.7026V12.6326" stroke="#2B2945" stroke-width="1.5" stroke-linecap="round" stroke-linejoin="round"/>
<path d="M9.93011 2.57253L4.59012 5.54256C3.38012 6.21256 2.39014 7.89254 2.39014 9.27254V14.9226C2.39014 16.3026 3.38012 17.9825 4.59012 18.6525L9.93011 21.6226C11.0701 22.2526 12.9401 22.2526 14.0801 21.6226L19.4201 18.6525C20.6301 17.9825 21.6201 16.3026 21.6201 14.9226V9.27254C21.6201 7.89254 20.6301 6.21256 19.4201 5.54256L14.0801 2.57253C12.9301 1.93253 11.0701 1.93253 9.93011 2.57253Z" stroke="#2B2945" stroke-width="1.5" stroke-linecap="round" stroke-linejoin="round"/>
<path d="M17 13.3322V9.67218L7.51001 4.19214" stroke="#2B2945" stroke-width="1.5" stroke-linecap="round" stroke-linejoin="round"/>
</svg>
