<svg width="18" height="20" viewBox="0 0 18 20" fill="none" xmlns="http://www.w3.org/2000/svg">
<path d="M17.5852 8.87483L9.56051 0.372458C9.20829 -0.000793748 8.67714 -0.000753112 8.32505 0.372417L0.300353 8.87487C0.0182014 9.17383 -0.0749989 9.63445 0.0628454 10.0483C0.200725 10.4622 0.536428 10.7296 0.918137 10.7296H2.19982V19.2483C2.19982 19.5861 2.43533 19.8599 2.7258 19.8599H7.12431C7.41477 19.8599 7.65029 19.5861 7.65029 19.2483V14.076H10.2354V19.2484C10.2354 19.5861 10.4709 19.86 10.7614 19.86H15.1597C15.4501 19.86 15.6856 19.5862 15.6856 19.2484V10.7296H16.9676C17.3492 10.7296 17.685 10.4621 17.8229 10.0483C17.9605 9.63441 17.8673 9.17383 17.5852 8.87483Z" fill="#FF385C"/>
<path d="M15.5482 1.31335H12.0159L16.0742 5.60422V1.92492C16.0742 1.58717 15.8387 1.31335 15.5482 1.31335Z" fill="#FF385C"/>
</svg>
