<svg width="85" height="24" viewBox="0 0 85 24" fill="none" xmlns="http://www.w3.org/2000/svg">
<path d="M20.8835 22.0694L24.1195 19.3535V7.83736L12.1766 0.25L5.96277 3.96232V2.19055H2.72683V5.89614L0.130493 7.44736V19.6433L3.36644 16.9282V9.36505L12.1256 4.13176L20.8835 9.69587V22.0694Z" fill="#2B2945"/>
<path d="M4.0603 9.66359V18.7961L6.7664 16.6041V8.11169L4.0603 9.66359Z" fill="#FF385C"/>
<path d="M29.1841 18.283H29.2884C29.3263 18.2804 29.3642 18.2804 29.4021 18.283C29.4362 18.2847 29.4701 18.2902 29.503 18.2996C29.5285 18.3052 29.5515 18.3193 29.5683 18.3398C29.5964 18.3772 29.611 18.4234 29.6099 18.4707C29.6099 18.5266 29.6099 18.5833 29.6099 18.6453V22.848C29.6127 22.9002 29.6015 22.9521 29.5776 22.9982C29.5626 23.0193 29.5406 23.0339 29.5157 23.0392C29.492 23.0392 29.4623 23.0505 29.4309 23.0593H29.3071C29.246 23.0593 29.1901 23.0593 29.1375 23.0523C29.115 23.052 29.093 23.0456 29.0737 23.0338C29.0543 23.022 29.0383 23.0052 29.0272 22.9851C29.008 22.9519 28.9989 22.9136 29.0009 22.8751V18.6723C29.0009 18.6226 29.0009 18.5684 29.0009 18.5082C28.9967 18.4582 29.007 18.4081 29.0306 18.3642C29.0425 18.3462 29.0579 18.3309 29.0759 18.3193C29.0939 18.3077 29.114 18.3001 29.1349 18.297C29.1432 18.294 29.1521 18.294 29.1604 18.297C29.1651 18.2966 29.1697 18.2951 29.1738 18.2927C29.1779 18.2903 29.1814 18.287 29.1841 18.283Z" fill="#2B2945"/>
<path d="M33.1158 18.27C33.1938 18.27 33.2854 18.27 33.3761 18.27C33.4511 18.2627 33.5263 18.2805 33.5907 18.3206C33.6306 18.3527 33.664 18.3924 33.6891 18.4376C33.7188 18.4891 33.7476 18.5344 33.7739 18.5746L33.9435 18.846C34.002 18.9333 34.0589 19.0302 34.1131 19.1245C34.1437 19.1734 34.1751 19.2214 34.2073 19.2676C34.2395 19.3139 34.2717 19.3628 34.3023 19.4125C34.4317 19.6267 34.5638 19.8396 34.6983 20.0515C34.8329 20.2633 34.9675 20.4765 35.102 20.6913C35.1363 20.752 35.1746 20.8104 35.2165 20.8658C35.2577 20.9217 35.2956 20.98 35.3302 21.0404C35.4037 21.1608 35.4783 21.2801 35.5541 21.3983L35.7788 21.7474L35.8636 21.8783C35.8754 21.9009 35.8927 21.9199 35.9138 21.9334C35.935 21.9468 35.9592 21.9543 35.984 21.9551C36.0061 21.9464 36.0171 21.9394 36.0171 21.9351C36.0404 21.9023 36.0518 21.8621 36.0494 21.8216V18.7003C36.0491 18.6667 36.0468 18.6332 36.0426 18.5999C36.0383 18.5663 36.0406 18.5322 36.0494 18.4995V18.4253C36.0578 18.4087 36.0632 18.3907 36.0655 18.3721C36.0673 18.3553 36.0728 18.3392 36.0816 18.325C36.0956 18.3069 36.1134 18.2924 36.1337 18.2826C36.154 18.2728 36.1762 18.2678 36.1986 18.2682C36.2512 18.2682 36.3072 18.2682 36.3682 18.2682H36.453C36.4785 18.2678 36.5038 18.2722 36.5277 18.2813C36.551 18.291 36.5712 18.3071 36.5862 18.3279C36.6012 18.3487 36.6103 18.3734 36.6125 18.3991C36.6191 18.4647 36.6222 18.5305 36.6218 18.5964V22.6988C36.6218 22.7477 36.6218 22.7966 36.6218 22.8463C36.6266 22.8867 36.6159 22.9273 36.5921 22.9598C36.5783 22.9838 36.5562 23.0015 36.5302 23.0096L36.4454 23.0331H36.1164C36.0706 23.0348 36.0251 23.0258 35.9832 23.0069C35.9484 22.9949 35.9186 22.9713 35.8984 22.9397C35.8789 22.9083 35.8585 22.8769 35.8365 22.8463C35.8017 22.7922 35.7661 22.7363 35.7296 22.6779C35.6931 22.6194 35.6567 22.5626 35.6219 22.5033C35.4659 22.2624 35.3118 22.0235 35.1597 21.7867C35.0076 21.5499 34.8558 21.3087 34.7043 21.0631C34.6217 20.9293 34.5369 20.7977 34.4498 20.6686C34.365 20.5385 34.2802 20.4067 34.1954 20.2732C34.0529 20.0404 33.9034 19.8059 33.7468 19.5696L33.695 19.4824C33.6762 19.452 33.6517 19.4259 33.6229 19.4055C33.6134 19.4001 33.6045 19.3933 33.5967 19.3855C33.5927 19.381 33.5874 19.3778 33.5816 19.3766C33.5759 19.3753 33.5698 19.376 33.5644 19.3785C33.5526 19.3818 33.5419 19.3886 33.5338 19.398C33.5256 19.4075 33.5204 19.4192 33.5186 19.4317C33.5142 19.459 33.5077 19.4858 33.4991 19.512V19.5592C33.4902 19.593 33.4882 19.6284 33.4932 19.663C33.4972 19.6998 33.4992 19.7368 33.4991 19.7739V22.6595C33.4991 22.6822 33.4991 22.7093 33.4991 22.7407C33.5022 22.7679 33.499 22.7954 33.4898 22.821V22.8743C33.4843 22.9063 33.4755 22.9376 33.4635 22.9676C33.46 22.9783 33.454 22.9878 33.446 22.9955C33.438 23.0031 33.4283 23.0085 33.4177 23.0113L33.3465 23.0349H33.2159C33.1557 23.0349 33.1014 23.0349 33.0539 23.0288C33.0329 23.0283 33.0124 23.0225 32.9942 23.0119C32.9759 23.0012 32.9606 22.986 32.9496 22.9676C32.9259 22.9364 32.9141 22.8973 32.9165 22.8577V18.4777C32.9141 18.4274 32.9255 18.3775 32.9496 18.3337C32.9689 18.3058 32.9961 18.2847 33.0276 18.2735C33.0392 18.2697 33.0516 18.2697 33.0632 18.2735C33.0716 18.2771 33.0808 18.2788 33.0899 18.2781C33.099 18.2775 33.1079 18.2747 33.1158 18.27Z" fill="#2B2945"/>
<path d="M41.3925 18.1696C41.6132 18.1584 41.8344 18.1787 42.0498 18.2298C42.23 18.2742 42.4019 18.3488 42.5586 18.4506C42.5827 18.4677 42.6076 18.4834 42.6333 18.4978C42.6584 18.5122 42.6815 18.5302 42.702 18.551C42.7096 18.5598 42.7181 18.5677 42.7274 18.5746C42.7367 18.5817 42.7455 18.5896 42.7537 18.5982C42.7639 18.6087 42.7747 18.6186 42.7859 18.6278C42.7987 18.6386 42.8098 18.6513 42.819 18.6654L42.8707 18.7317C42.8885 18.7544 42.9055 18.7771 42.9233 18.7989C42.9399 18.8208 42.9542 18.8445 42.9657 18.8696C42.9757 18.8939 42.9876 18.9172 43.0013 18.9395C43.0412 19.0051 43.0717 19.0762 43.0921 19.1507C43.1141 19.2292 43.1353 19.3104 43.1574 19.3951C43.1661 19.4334 43.1695 19.4728 43.1676 19.512C43.1673 19.5457 43.1595 19.5789 43.1447 19.6089C43.1324 19.6255 43.1166 19.6389 43.0985 19.6483C43.0805 19.6577 43.0606 19.6627 43.0403 19.663C42.992 19.663 42.9428 19.67 42.8902 19.67H42.8317C42.8143 19.6699 42.7969 19.6675 42.78 19.663C42.7616 19.659 42.7428 19.6566 42.724 19.6561C42.7071 19.6555 42.6906 19.6511 42.6757 19.643C42.6672 19.643 42.6587 19.6325 42.6494 19.6264C42.6405 19.619 42.632 19.6112 42.6239 19.6028C42.5957 19.5582 42.5769 19.5079 42.5688 19.4553C42.559 19.4021 42.5424 19.3505 42.5196 19.3017C42.4575 19.1381 42.3487 18.9978 42.2075 18.8993C42.0982 18.8242 41.9767 18.7698 41.8488 18.7387C41.8237 18.7303 41.7978 18.7247 41.7716 18.7221C41.7451 18.7196 41.7189 18.7141 41.6936 18.7055H41.641C41.6069 18.6966 41.5719 18.6919 41.5367 18.6916H41.4332C41.2391 18.6857 41.046 18.7223 40.8667 18.7989C40.7816 18.8336 40.7026 18.8822 40.6326 18.9429C40.5633 19.0032 40.5097 19.0803 40.4766 19.1673C40.4591 19.2022 40.4468 19.2395 40.4401 19.2781C40.4341 19.3157 40.4265 19.3575 40.4172 19.4021C40.4083 19.4415 40.4051 19.4821 40.4079 19.5225C40.4089 19.5609 40.4143 19.5989 40.424 19.636C40.4458 19.7216 40.4848 19.8016 40.5385 19.8708C40.5938 19.9326 40.6585 19.9848 40.7301 20.0253C40.8286 20.0889 40.9362 20.1361 41.049 20.1649C41.1661 20.1964 41.2873 20.2304 41.4137 20.2662C41.4521 20.2749 41.4908 20.2816 41.5299 20.2863C41.5699 20.2908 41.6095 20.2996 41.6478 20.3124C41.7106 20.3315 41.7747 20.346 41.8394 20.3561C41.905 20.3669 41.9694 20.3838 42.032 20.4067C42.0468 20.4107 42.0618 20.4139 42.0769 20.4163L42.1227 20.4268C42.1617 20.4355 42.2007 20.446 42.2397 20.4565L42.3568 20.4931C42.4416 20.5245 42.5264 20.5586 42.6112 20.5944C42.6928 20.6297 42.7714 20.6721 42.8461 20.7209C42.9391 20.7829 43.0246 20.8562 43.1006 20.9391C43.1781 21.0246 43.2407 21.1232 43.2854 21.2307C43.3026 21.2693 43.3157 21.3097 43.3245 21.3511C43.3329 21.3913 43.3423 21.4332 43.3508 21.4777C43.3596 21.5026 43.3639 21.5289 43.3635 21.5554C43.3629 21.5851 43.3675 21.6146 43.377 21.6427V21.7762C43.3723 21.7938 43.37 21.8121 43.3703 21.8303V21.8836C43.3615 21.9196 43.3561 21.9565 43.3541 21.9936C43.3517 22.0314 43.344 22.0688 43.3312 22.1044C43.3092 22.1716 43.2854 22.2362 43.26 22.2991C43.2343 22.361 43.2015 22.4196 43.1625 22.4736C43.0883 22.5894 42.9933 22.6895 42.8826 22.7687C42.7671 22.8503 42.6451 22.9218 42.5179 22.9825C42.4744 23.0011 42.432 23.0168 42.3907 23.0296C42.35 23.0427 42.3059 23.0567 42.2576 23.0698C42.209 23.0878 42.1587 23.1001 42.1074 23.1064C42.0549 23.1138 42.0028 23.1239 41.9514 23.137C41.9291 23.1416 41.9063 23.1439 41.8835 23.144C41.8605 23.1437 41.8375 23.1458 41.8148 23.1501C41.7894 23.1501 41.7631 23.1501 41.7368 23.1501C41.7105 23.1501 41.6851 23.1501 41.6588 23.1501C41.6276 23.155 41.5961 23.157 41.5647 23.1562C41.5332 23.1571 41.5017 23.155 41.4705 23.1501H41.3984C41.3554 23.1414 41.3117 23.137 41.2678 23.137C41.2265 23.1369 41.1852 23.1322 41.1449 23.123C41.1279 23.1186 41.1106 23.1154 41.0931 23.1134L41.0337 23.103C40.9863 23.0942 40.9422 23.0855 40.9006 23.0759C40.8574 23.0666 40.8151 23.0531 40.7742 23.0357C40.582 22.9751 40.4006 22.8825 40.2374 22.7617C40.0856 22.6431 39.9582 22.4948 39.8625 22.3252C39.8291 22.2677 39.8007 22.2073 39.7777 22.1446C39.7531 22.0817 39.7311 22.0145 39.709 21.9438C39.7009 21.9177 39.6955 21.8908 39.6929 21.8635C39.6909 21.8381 39.6854 21.8132 39.6768 21.7893C39.6678 21.7442 39.6636 21.6983 39.6641 21.6523C39.6602 21.6124 39.6718 21.5725 39.6963 21.5414C39.7091 21.5249 39.7254 21.5116 39.7439 21.5024C39.7624 21.4932 39.7826 21.4883 39.8032 21.4882C39.8532 21.4838 39.9024 21.4812 39.9499 21.4812H40.005C40.0217 21.4809 40.0382 21.4833 40.0542 21.4882C40.0713 21.4909 40.0888 21.4909 40.1059 21.4882C40.1218 21.4863 40.1378 21.4897 40.1517 21.4978C40.1759 21.5096 40.1962 21.5284 40.2102 21.5519C40.2226 21.5732 40.2304 21.597 40.2331 21.6217C40.2358 21.6478 40.2412 21.6736 40.2493 21.6985C40.2577 21.73 40.2654 21.7614 40.2722 21.7928C40.2789 21.8248 40.2886 21.8561 40.301 21.8862C40.3515 22.0209 40.4285 22.1433 40.5271 22.2459C40.6258 22.3485 40.744 22.429 40.8743 22.4824C40.9591 22.5181 41.0541 22.5513 41.1542 22.5827C41.1882 22.5916 41.2228 22.5983 41.2576 22.6028L41.362 22.6159C41.373 22.6153 41.384 22.6153 41.395 22.6159C41.408 22.6172 41.4211 22.6172 41.434 22.6159C41.4542 22.6203 41.475 22.6203 41.4951 22.6159C41.5182 22.6116 41.542 22.614 41.5638 22.6229C41.5884 22.6277 41.6134 22.6298 41.6384 22.629C41.6673 22.6304 41.6961 22.6259 41.7233 22.6159H41.7691C41.7903 22.6114 41.8119 22.6091 41.8335 22.6089C41.8554 22.6091 41.8773 22.607 41.8988 22.6028C41.9105 22.5995 41.9228 22.5995 41.9344 22.6028C41.9495 22.6045 41.9646 22.6011 41.9777 22.5932C42.014 22.5832 42.0508 22.5753 42.0879 22.5696C42.1256 22.5633 42.1625 22.5531 42.1982 22.5391C42.3051 22.4927 42.4067 22.4341 42.501 22.3645C42.5916 22.2984 42.6626 22.2078 42.7062 22.1027C42.7189 22.0678 42.7296 22.0323 42.7384 21.9962C42.7469 21.9604 42.7554 21.9246 42.7647 21.8888C42.7739 21.847 42.7781 21.8042 42.7774 21.7614C42.7784 21.7208 42.7741 21.6803 42.7647 21.6409C42.7566 21.6231 42.752 21.6038 42.7511 21.5842C42.7506 21.5665 42.7463 21.5492 42.7384 21.5336C42.716 21.4638 42.6806 21.3991 42.6341 21.3433C42.5879 21.289 42.5355 21.2406 42.4781 21.1993C42.3843 21.1302 42.2811 21.0758 42.1719 21.0378C42.0557 20.9966 41.9373 20.9622 41.8174 20.9348C41.6944 20.9051 41.563 20.8772 41.4374 20.8475C41.3119 20.8178 41.183 20.7899 41.06 20.7541C40.9897 20.7323 40.9209 20.7131 40.8514 20.6974C40.7845 20.6827 40.7192 20.6614 40.6563 20.6336C40.6503 20.6303 40.6437 20.6282 40.6368 20.6275C40.63 20.6266 40.6233 20.6242 40.6173 20.6206L40.4867 20.5664C40.4432 20.5488 40.4017 20.5262 40.3629 20.4992C40.2665 20.4394 40.1752 20.3714 40.0898 20.2959C40.0046 20.2175 39.9379 20.1202 39.8948 20.0113C39.8728 19.9705 39.8573 19.9263 39.849 19.8804C39.8405 19.8332 39.8295 19.7852 39.8167 19.7364C39.8177 19.7207 39.8177 19.7049 39.8167 19.6892C39.8155 19.6759 39.8155 19.6624 39.8167 19.6491C39.8033 19.5819 39.8011 19.5128 39.8099 19.4448C39.8156 19.3803 39.8267 19.3163 39.843 19.2537C39.8557 19.2048 39.8676 19.1577 39.8786 19.1131C39.8894 19.0696 39.9036 19.027 39.921 18.9857C39.9775 18.8588 40.0569 18.7442 40.1551 18.6479C40.2536 18.5541 40.3603 18.4699 40.474 18.3965C40.4831 18.3876 40.4947 18.3818 40.5071 18.38C40.5192 18.3779 40.5304 18.3721 40.5393 18.3634C40.6455 18.3097 40.7565 18.267 40.8709 18.2359L40.9684 18.2124C40.999 18.2063 41.0312 18.1984 41.0668 18.1897C41.1039 18.1798 41.1421 18.1751 41.1805 18.1757C41.2187 18.176 41.2569 18.1716 41.2941 18.1626C41.3134 18.1581 41.3334 18.1581 41.3526 18.1626C41.3648 18.1693 41.3788 18.1718 41.3925 18.1696Z" fill="#2B2945"/>
<path d="M46.5591 18.2699C46.6193 18.2699 46.6922 18.2699 46.777 18.2699C46.8618 18.2699 46.917 18.2848 46.9466 18.3206C46.9847 18.3722 47.0023 18.4368 46.9958 18.5012C46.9958 18.5815 46.9958 18.6575 46.9958 18.7291V20.9793C46.9958 21.1355 46.9958 21.2883 47.0026 21.4375C47.0043 21.5731 47.0261 21.7076 47.0671 21.8364C47.1154 21.9959 47.1977 22.1423 47.3079 22.265C47.4213 22.3831 47.5566 22.4766 47.7057 22.5399C47.7531 22.5618 47.8034 22.5765 47.855 22.5836C47.9075 22.5901 47.9597 22.6 48.011 22.6132C48.037 22.6173 48.0653 22.6208 48.0958 22.6237C48.1238 22.6237 48.1509 22.629 48.1806 22.6333H48.2451C48.2714 22.6333 48.2985 22.6333 48.3299 22.6333C48.3552 22.6363 48.3809 22.6327 48.4045 22.6228C48.427 22.6193 48.4499 22.6193 48.4724 22.6228C48.4952 22.6259 48.5183 22.6259 48.5411 22.6228C48.5928 22.6098 48.6428 22.5984 48.6912 22.5897C48.7403 22.5796 48.788 22.5637 48.8337 22.5425C48.9808 22.4873 49.1135 22.3977 49.2212 22.2807C49.324 22.1554 49.4002 22.0094 49.4451 21.8521C49.482 21.7292 49.5029 21.6018 49.5071 21.4733C49.5138 21.3325 49.5172 21.187 49.5172 21.0369V18.7797C49.5172 18.7037 49.5172 18.6182 49.5172 18.5222C49.5085 18.4502 49.526 18.3774 49.5664 18.3179C49.5811 18.3007 49.5997 18.2874 49.6206 18.2792C49.6414 18.2709 49.6638 18.2681 49.686 18.2708H49.8556C49.8762 18.2694 49.8969 18.2694 49.9175 18.2708C49.937 18.2708 49.9574 18.2708 49.9794 18.2708C50.0023 18.2731 50.0245 18.2802 50.0446 18.2916C50.0647 18.303 50.0823 18.3185 50.0965 18.3371C50.1204 18.3847 50.1304 18.4384 50.1253 18.4916C50.1253 18.5591 50.1253 18.6194 50.1253 18.6723V20.9897C50.1253 21.1547 50.1253 21.3179 50.1185 21.4785C50.1162 21.6259 50.0966 21.7725 50.06 21.915C50.0082 22.1125 49.9282 22.3011 49.8225 22.4745C49.72 22.6328 49.5855 22.7665 49.4282 22.8664C49.3615 22.9069 49.292 22.9425 49.2204 22.9729C49.1466 23.0043 49.0686 23.0331 48.9863 23.0601C48.9481 23.0732 48.909 23.0834 48.8693 23.0907C48.8294 23.0968 48.7845 23.1047 48.7455 23.1143C48.7016 23.123 48.657 23.1274 48.6123 23.1274C48.5673 23.1273 48.5225 23.1316 48.4783 23.1404H48.3816C48.3127 23.1498 48.2428 23.1498 48.1738 23.1404H48.0958C48.0649 23.1315 48.0328 23.1283 48.0008 23.1308C47.9691 23.1326 47.9373 23.1291 47.9067 23.1204H47.855C47.8217 23.1118 47.788 23.1051 47.754 23.1003C47.7201 23.0955 47.6864 23.0888 47.6531 23.0802C47.5793 23.0575 47.5064 23.0366 47.4351 23.0165C47.3647 22.9971 47.296 22.9714 47.2299 22.9397C47.2006 22.9261 47.1722 22.9104 47.1451 22.8926C47.1158 22.874 47.0875 22.8539 47.0603 22.8323C46.9352 22.7527 46.8249 22.6508 46.7346 22.5312C46.6432 22.406 46.5687 22.2686 46.5133 22.1227C46.4874 22.0555 46.4678 21.986 46.4548 21.915C46.442 21.8434 46.4268 21.7701 46.409 21.6941C46.4047 21.6583 46.4013 21.6234 46.3996 21.5903C46.3979 21.5571 46.3945 21.5222 46.3894 21.4864V21.4192C46.3811 21.3832 46.3791 21.3459 46.3835 21.3092C46.3875 21.2724 46.3895 21.2354 46.3894 21.1984V18.4393C46.3884 18.4036 46.3975 18.3684 46.4157 18.338C46.4269 18.3209 46.4413 18.3062 46.4581 18.2948C46.4748 18.2834 46.4936 18.2756 46.5133 18.2717C46.5285 18.2737 46.544 18.2731 46.5591 18.2699Z" fill="#2B2945"/>
<path d="M57.0228 22.8733C57.0347 22.8953 57.0386 22.9209 57.0338 22.9455C57.0289 22.9702 57.0157 22.9922 56.9965 23.0077C56.9705 23.0225 56.9414 23.0306 56.9117 23.0313C56.8795 23.0313 56.8456 23.0313 56.8108 23.0313H56.6081C56.5502 23.0352 56.4927 23.0185 56.4453 22.9842C56.4276 22.9726 56.4125 22.9574 56.4009 22.9395C56.3892 22.9216 56.3812 22.9015 56.3774 22.8803C56.3664 22.8332 56.3562 22.7852 56.3477 22.7363C56.3435 22.7198 56.3412 22.7028 56.3409 22.6857V22.642C56.3325 22.6232 56.3304 22.602 56.335 22.5818C56.3393 22.5643 56.3393 22.546 56.335 22.5285C56.3302 22.5021 56.3279 22.4752 56.3282 22.4482V22.3679L56.3087 22.0668C56.2999 22.0362 56.2956 22.0044 56.296 21.9725C56.2954 21.9386 56.2908 21.9049 56.2824 21.8722C56.2606 21.7932 56.2445 21.7127 56.2341 21.6313C56.2237 21.5528 56.2029 21.4761 56.1722 21.4034C56.1347 21.3139 56.0786 21.2339 56.0078 21.169C55.937 21.1042 55.8533 21.0561 55.7626 21.0281C55.7029 21.0058 55.6402 20.9934 55.5768 20.9914C55.5098 20.9914 55.4386 20.9914 55.3648 20.9914H54.1656C54.1359 21.001 54.1088 21.0089 54.0808 21.015C54.056 21.022 54.0341 21.0374 54.0189 21.0587C53.9833 21.1252 53.9684 21.2014 53.9765 21.2769C53.9765 21.3764 53.9765 21.4654 53.9765 21.5387V22.5093C53.9765 22.5722 53.9765 22.649 53.9832 22.7406C53.9901 22.8099 53.9811 22.8798 53.9569 22.9449C53.9536 22.9586 53.947 22.9712 53.9379 22.9817C53.9287 22.9921 53.9172 23.0002 53.9044 23.0051C53.8894 23.0132 53.8729 23.0177 53.856 23.0182C53.8367 23.019 53.8176 23.0238 53.8001 23.0322C53.7807 23.0358 53.7609 23.0358 53.7415 23.0322C53.7203 23.0322 53.6983 23.0322 53.6771 23.0322C53.6287 23.0322 53.5821 23.0322 53.5371 23.0322C53.4965 23.0315 53.4569 23.0184 53.4235 22.9946C53.4049 22.9808 53.3902 22.9621 53.3809 22.9405C53.3717 22.9188 53.3682 22.895 53.3709 22.8716V18.6217C53.3709 18.5728 53.3709 18.5213 53.3709 18.468C53.3648 18.4251 53.3745 18.3814 53.398 18.3454C53.4215 18.3095 53.4572 18.2838 53.4981 18.2734C53.5064 18.2704 53.5153 18.2704 53.5236 18.2734C53.5277 18.2753 53.5322 18.2763 53.5367 18.2763C53.5413 18.2763 53.5457 18.2753 53.5499 18.2734H55.4377H55.5353C55.5654 18.2698 55.5959 18.2698 55.626 18.2734H55.6972C55.7235 18.2786 55.7498 18.2813 55.7761 18.2839C55.8024 18.2865 55.8295 18.2891 55.8609 18.2935C55.8963 18.3029 55.9323 18.3096 55.9686 18.3135C56.0049 18.318 56.0409 18.3247 56.0763 18.3336C56.1535 18.3586 56.2294 18.3878 56.3036 18.4209C56.3724 18.4519 56.4377 18.4902 56.4987 18.5353C56.6043 18.608 56.6942 18.7025 56.7625 18.8128C56.8353 18.9328 56.8924 19.0623 56.9321 19.1977C56.9405 19.2342 56.9459 19.2712 56.9482 19.3086C56.9501 19.346 56.9555 19.3831 56.9643 19.4195V19.4858C56.9674 19.5113 56.9674 19.5371 56.9643 19.5626C56.9622 19.5886 56.9588 19.6146 56.9541 19.6403V19.7136C56.9462 19.7466 56.9408 19.7801 56.938 19.814C56.9356 19.8456 56.9302 19.8769 56.9219 19.9074L56.86 20.0985C56.8395 20.1604 56.811 20.2191 56.7752 20.2731C56.7631 20.2946 56.7489 20.3148 56.7328 20.3333C56.7173 20.3524 56.7031 20.3725 56.6904 20.3935L56.6776 20.404C56.6728 20.4063 56.6685 20.4096 56.6649 20.4136C56.6544 20.4241 56.6445 20.4352 56.6352 20.4468C56.6242 20.4608 56.6149 20.4721 56.6064 20.4808C56.5708 20.507 56.5386 20.5332 56.508 20.5576C56.4768 20.583 56.4442 20.6066 56.4105 20.6283C56.39 20.641 56.3707 20.6556 56.3528 20.672C56.3348 20.6882 56.3231 20.7105 56.3197 20.7348C56.3174 20.7478 56.319 20.7612 56.3243 20.7732C56.3297 20.7853 56.3384 20.7953 56.3494 20.802C56.3688 20.8169 56.3892 20.8304 56.4105 20.8422C56.4573 20.8725 56.5021 20.9061 56.5445 20.9426C56.586 20.9794 56.622 21.0224 56.6514 21.07C56.6996 21.1324 56.7351 21.2043 56.7557 21.2812C56.7777 21.3589 56.7989 21.4427 56.821 21.5326C56.8252 21.5684 56.8295 21.6024 56.8337 21.6365C56.8379 21.6705 56.8422 21.7037 56.8464 21.7395C56.855 21.7701 56.8573 21.8022 56.8532 21.8338C56.8486 21.865 56.851 21.8969 56.86 21.9272V21.9874C56.8684 22.0201 56.8704 22.0542 56.8659 22.0878C56.8618 22.1237 56.8641 22.16 56.8727 22.1951C56.8756 22.2119 56.8756 22.229 56.8727 22.2457C56.8695 22.2645 56.8695 22.2837 56.8727 22.3025C56.8815 22.3478 56.888 22.3935 56.8922 22.4395C56.8958 22.4841 56.9046 22.5281 56.9185 22.5704C56.9265 22.5954 56.9319 22.6211 56.9346 22.6473C56.937 22.6734 56.9424 22.6992 56.9507 22.7241L57.0228 22.8733ZM56.2349 20.0942C56.2648 20.0466 56.288 19.9949 56.3036 19.9405C56.3189 19.8864 56.3333 19.8288 56.346 19.766V19.7057C56.3594 19.6385 56.3617 19.5695 56.3528 19.5015C56.3459 19.4389 56.3329 19.3772 56.3138 19.3173C56.2846 19.213 56.2323 19.1171 56.1611 19.037C56.0899 18.9569 56.0017 18.8948 55.9033 18.8556C55.8065 18.8177 55.7041 18.7973 55.6006 18.7954C55.4861 18.7954 55.3673 18.7884 55.2461 18.7884H54.1724C54.1634 18.7929 54.1535 18.7953 54.1435 18.7954C54.1311 18.7955 54.1188 18.7975 54.1071 18.8015C54.0841 18.806 54.0627 18.8164 54.0446 18.8317C54.0266 18.8469 54.0125 18.8665 54.0036 18.8888C53.9838 18.9421 53.976 18.9994 53.9807 19.0563C53.9807 19.1279 53.9807 19.1925 53.9807 19.2501V20.0208C53.9807 20.088 53.9807 20.1579 53.9807 20.2312C53.9739 20.2927 53.989 20.3548 54.0231 20.4058C54.0345 20.4218 54.0491 20.4352 54.0659 20.445C54.0827 20.4548 54.1014 20.4607 54.1206 20.4625C54.1681 20.4698 54.216 20.4733 54.264 20.473H54.6668C54.8364 20.473 55.001 20.473 55.1621 20.473C55.311 20.4756 55.4598 20.4665 55.6073 20.4459C55.7345 20.4288 55.8583 20.3917 55.9746 20.3359C56.0828 20.2825 56.1733 20.1975 56.2349 20.0915V20.0942Z" fill="#2B2945"/>
<path d="M63.7382 22.6901C63.7475 22.7128 63.7577 22.7399 63.7712 22.7713C63.7844 22.8024 63.7941 22.8349 63.8001 22.8682C63.8069 22.8989 63.8069 22.9308 63.8001 22.9616C63.797 22.9762 63.7903 22.9897 63.7806 23.0008C63.7709 23.012 63.7587 23.0204 63.745 23.0253C63.72 23.0346 63.6935 23.039 63.6669 23.0384H63.3837C63.3287 23.0413 63.2738 23.0299 63.2242 23.0052C63.1769 22.9721 63.1433 22.922 63.1301 22.8647C63.1126 22.8031 63.0919 22.7425 63.0682 22.6831C63.0207 22.5667 62.9774 22.4463 62.9384 22.3218C62.8994 22.197 62.8536 22.0739 62.8078 21.9534L62.7722 21.84C62.7619 21.8054 62.7489 21.7719 62.7332 21.7396C62.7184 21.7085 62.6973 21.6811 62.6713 21.6593C62.6404 21.6342 62.6049 21.6158 62.5669 21.6052C62.5431 21.596 62.5176 21.5927 62.4923 21.5956C62.4643 21.5956 62.4346 21.5956 62.4075 21.5956H61.1769C61.1379 21.5956 61.0921 21.5956 61.0472 21.5956C61.0017 21.592 60.9561 21.592 60.9106 21.5956C60.87 21.5991 60.8298 21.6058 60.7902 21.6156C60.7732 21.618 60.757 21.624 60.7424 21.6331C60.7278 21.6423 60.7152 21.6545 60.7054 21.6689C60.6708 21.7135 60.6454 21.7649 60.6307 21.8199C60.6155 21.8758 60.5968 21.9325 60.5756 21.9945C60.5315 22.0975 60.4908 22.2048 60.4543 22.3157C60.4179 22.4265 60.378 22.5348 60.3348 22.6378C60.3254 22.6639 60.3161 22.6945 60.3051 22.725C60.294 22.7556 60.2822 22.794 60.2695 22.8298C60.257 22.8628 60.2428 22.8952 60.2271 22.9267C60.2154 22.9511 60.1986 22.9726 60.1779 22.9895C60.1368 23.0188 60.0879 23.034 60.0379 23.0331C59.9794 23.0331 59.9175 23.0331 59.853 23.0331C59.8183 23.0331 59.7843 23.0331 59.7521 23.0331C59.7215 23.033 59.6917 23.0226 59.6673 23.0035C59.6569 22.9973 59.6482 22.9886 59.642 22.9781C59.6358 22.9675 59.6322 22.9556 59.6317 22.9432C59.6291 22.914 59.6311 22.8845 59.6376 22.856C59.6446 22.8263 59.6533 22.7972 59.6639 22.7687C59.6716 22.7464 59.6816 22.7251 59.6936 22.705C59.7538 22.5627 59.8081 22.4204 59.8556 22.2799C59.9031 22.1393 59.9557 21.9971 60.0125 21.8548C60.0515 21.7562 60.088 21.6593 60.1227 21.5633C60.1575 21.4673 60.194 21.3704 60.233 21.2717C60.3636 20.9505 60.4874 20.6258 60.6045 20.2976C60.7215 19.9694 60.845 19.6424 60.9751 19.3165C61.0226 19.2005 61.0675 19.0818 61.1082 18.9613C61.1489 18.8408 61.193 18.723 61.2422 18.606C61.2656 18.5525 61.2863 18.4977 61.3041 18.4419C61.317 18.3898 61.3469 18.3439 61.3889 18.3119C61.4129 18.2904 61.4423 18.2764 61.4738 18.2717C61.4833 18.2681 61.4938 18.2681 61.5034 18.2717C61.5128 18.2748 61.5229 18.2748 61.5323 18.2717C61.6103 18.2717 61.7019 18.2717 61.8054 18.2717C61.8847 18.2638 61.9644 18.2815 62.0335 18.3224C62.0743 18.3555 62.1039 18.401 62.1183 18.4524C62.1358 18.5083 62.1565 18.5631 62.1802 18.6165C62.2235 18.7195 62.265 18.8225 62.2972 18.9246C62.3295 19.0268 62.371 19.1306 62.4143 19.2328C62.4575 19.3349 62.4821 19.4143 62.5152 19.5077C62.5483 19.6011 62.5831 19.6927 62.6221 19.7826C62.7527 20.1085 62.8776 20.4376 62.9969 20.7698C63.1162 21.1021 63.2429 21.4315 63.3769 21.7579C63.3933 21.7951 63.4074 21.8333 63.4193 21.8723L63.4549 21.9857C63.5032 22.1018 63.5499 22.2205 63.5957 22.3401C63.6415 22.4597 63.6907 22.574 63.7382 22.6901ZM62.3464 21.0631C62.3631 21.0587 62.3786 21.0503 62.3915 21.0386C62.4045 21.027 62.4146 21.0123 62.4211 20.9959C62.4321 20.9625 62.4341 20.9266 62.427 20.892C62.4206 20.8531 62.4098 20.815 62.3948 20.7786C62.3795 20.7402 62.3659 20.7079 62.3524 20.6808C62.3448 20.6666 62.3404 20.6508 62.3397 20.6345C62.339 20.6179 62.3343 20.6017 62.3261 20.5874C62.3134 20.5516 62.3015 20.515 62.2905 20.4766C62.2789 20.4366 62.2647 20.3976 62.2481 20.3596C62.1836 20.199 62.1271 20.0349 62.0784 19.8673C62.0298 19.6997 61.9733 19.5356 61.9088 19.375C61.887 19.3273 61.8686 19.278 61.8537 19.2275C61.8387 19.1792 61.82 19.1322 61.7977 19.087C61.7895 19.0651 61.7799 19.0438 61.7689 19.0233C61.7611 19.0124 61.7507 19.0038 61.7386 18.9986C61.7264 18.9934 61.7132 18.9916 61.7002 18.9936C61.6925 19.0017 61.6836 19.0084 61.6739 19.0137C61.6644 19.0189 61.6559 19.0257 61.6485 19.0337C61.6315 19.0547 61.6183 19.0787 61.6094 19.1044C61.6001 19.1289 61.5916 19.1542 61.5832 19.1813C61.5618 19.2285 61.5445 19.2776 61.5314 19.3279C61.5178 19.3784 61.5002 19.4278 61.4788 19.4754C61.4059 19.6481 61.3419 19.8247 61.2872 20.0044C61.2306 20.183 61.1687 20.3576 61.1014 20.5281C61.093 20.5508 61.0853 20.5726 61.0785 20.5953C61.0723 20.6182 61.0646 20.6406 61.0556 20.6625C61.0429 20.6974 61.0302 20.7332 61.0166 20.769C61.004 20.8041 60.9932 20.84 60.9844 20.8763C60.9757 20.8997 60.9725 20.9248 60.9751 20.9496C60.976 20.9729 60.9815 20.9958 60.9912 21.0169C61.0075 21.0373 61.0286 21.0533 61.0524 21.0632C61.0763 21.0731 61.1022 21.0767 61.1277 21.0736C61.1973 21.0736 61.2626 21.0736 61.3228 21.0736H62.0191C62.0666 21.0736 62.1259 21.0736 62.1946 21.0736C62.2454 21.0788 62.2968 21.0753 62.3464 21.0631Z" fill="#2B2945"/>
<path d="M66.7904 18.27C66.8684 18.27 66.96 18.27 67.0508 18.27C67.1257 18.2627 67.2009 18.2805 67.2653 18.3206C67.3052 18.3527 67.3386 18.3924 67.3637 18.4376C67.3934 18.4891 67.4222 18.5345 67.4485 18.5746L67.6181 18.8461C67.6767 18.9333 67.7335 19.0302 67.7878 19.1245C67.8183 19.1734 67.8497 19.2214 67.8819 19.2676C67.9141 19.3139 67.9464 19.3628 67.9769 19.4125C68.1069 19.6267 68.239 19.8397 68.373 20.0515C68.507 20.2633 68.6415 20.4765 68.7767 20.6913C68.811 20.752 68.8492 20.8104 68.8911 20.8658C68.9323 20.9217 68.9703 20.98 69.0048 21.0404C69.0783 21.1609 69.1532 21.2802 69.2295 21.3983L69.4534 21.7474L69.5382 21.8783C69.55 21.9009 69.5673 21.9199 69.5885 21.9334C69.6096 21.9469 69.6338 21.9544 69.6587 21.9552C69.6807 21.9464 69.6918 21.9394 69.6918 21.9351C69.715 21.9023 69.7264 21.8621 69.724 21.8216V18.7003C69.7237 18.6667 69.7214 18.6332 69.7172 18.5999C69.7129 18.5663 69.7153 18.5322 69.724 18.4995V18.4254C69.7324 18.4087 69.7379 18.3907 69.7401 18.3721C69.7419 18.3553 69.7474 18.3392 69.7562 18.325C69.7701 18.3068 69.7879 18.2922 69.8082 18.2823C69.8285 18.2725 69.8508 18.2677 69.8732 18.2682C69.9258 18.2682 69.9818 18.2682 70.0429 18.2682H70.1277C70.1531 18.2678 70.1784 18.2722 70.2023 18.2813C70.2256 18.291 70.2459 18.3072 70.2608 18.328C70.2758 18.3487 70.2849 18.3734 70.2871 18.3992C70.2937 18.4647 70.2968 18.5305 70.2964 18.5964V22.6988C70.2964 22.7477 70.2964 22.7966 70.2964 22.8463C70.3012 22.8867 70.2905 22.9274 70.2668 22.9598C70.2529 22.9838 70.2308 23.0015 70.2048 23.0096L70.12 23.0331H69.7918C69.7458 23.0349 69.7 23.0259 69.6578 23.0069C69.623 22.995 69.5932 22.9713 69.573 22.9397C69.5535 22.9083 69.5332 22.8769 69.5111 22.8463C69.4772 22.7922 69.4407 22.7364 69.4042 22.6779C69.3678 22.6194 69.3313 22.5627 69.2965 22.5033C69.1405 22.2624 68.9867 22.0235 68.8352 21.7867C68.6836 21.5499 68.5316 21.3087 68.3789 21.0631C68.2969 20.9293 68.2135 20.7978 68.1287 20.6686C68.0439 20.5385 67.9591 20.4067 67.8743 20.2732C67.7318 20.0404 67.5823 19.8059 67.4256 19.5697C67.4087 19.5382 67.3909 19.5086 67.3739 19.4824C67.3551 19.4521 67.3306 19.4259 67.3018 19.4056C67.2922 19.4001 67.2834 19.3934 67.2755 19.3855C67.2716 19.381 67.2663 19.3779 67.2605 19.3766C67.2547 19.3753 67.2487 19.376 67.2433 19.3785C67.2314 19.3818 67.2208 19.3886 67.2126 19.3981C67.2045 19.4075 67.1992 19.4192 67.1975 19.4317C67.1935 19.4591 67.187 19.486 67.178 19.512V19.5592C67.1695 19.5931 67.1675 19.6284 67.1721 19.663C67.1761 19.6999 67.1781 19.7369 67.178 19.7739V22.6596C67.178 22.6822 67.178 22.7093 67.178 22.7407C67.181 22.7679 67.1778 22.7954 67.1687 22.821V22.8743C67.1632 22.9063 67.1544 22.9376 67.1424 22.9677C67.1389 22.9783 67.1329 22.9879 67.1249 22.9955C67.1169 23.0031 67.1071 23.0085 67.0966 23.0113L67.0253 23.0349H66.8947C66.8345 23.0349 66.7802 23.0349 66.7327 23.0288C66.7118 23.0284 66.6912 23.0226 66.673 23.0119C66.6548 23.0012 66.6395 22.986 66.6284 22.9677C66.6047 22.9364 66.593 22.8973 66.5953 22.8577V18.4777C66.5929 18.4275 66.6044 18.3775 66.6284 18.3337C66.6477 18.3058 66.675 18.2847 66.7064 18.2735C66.718 18.2697 66.7305 18.2697 66.7421 18.2735C66.758 18.2787 66.7753 18.2775 66.7904 18.27Z" fill="#2B2945"/>
<path d="M75.4714 18.1599C75.8396 18.1397 76.207 18.2122 76.5417 18.3712C76.8179 18.5092 77.0511 18.7238 77.2151 18.9909C77.2551 19.0566 77.2911 19.1248 77.3228 19.1951C77.3558 19.2703 77.3841 19.3476 77.4076 19.4265C77.4181 19.4549 77.4266 19.4841 77.4331 19.5137C77.4424 19.5481 77.4403 19.5846 77.4271 19.6176C77.4239 19.6297 77.4177 19.6407 77.409 19.6496C77.4004 19.6585 77.3897 19.6649 77.378 19.6682C77.3542 19.6743 77.3296 19.6822 77.3033 19.6918H77.238C77.2223 19.6964 77.206 19.6985 77.1897 19.6979H77.132C77.0753 19.6982 77.0187 19.695 76.9624 19.6883C76.9409 19.6868 76.92 19.6803 76.9014 19.6693C76.8827 19.6582 76.8667 19.6429 76.8547 19.6246C76.8231 19.5773 76.799 19.5252 76.7834 19.4701C76.7662 19.4136 76.742 19.3596 76.7114 19.3095C76.6591 19.2162 76.5946 19.1307 76.5197 19.0555C76.4417 18.9796 76.3565 18.912 76.2653 18.8539C76.213 18.8184 76.1558 18.7913 76.0956 18.7736L75.904 18.7203C75.8506 18.7055 75.7961 18.6953 75.7411 18.6898C75.6775 18.6829 75.6135 18.6797 75.5495 18.6802C75.4843 18.6798 75.4192 18.683 75.3544 18.6898C75.3004 18.6947 75.247 18.7049 75.195 18.7203C75.1509 18.7291 75.1101 18.7378 75.0711 18.7474C75.0308 18.7564 74.9916 18.7699 74.9541 18.7875C74.7774 18.8606 74.6166 18.9692 74.4813 19.1071C74.346 19.245 74.2389 19.4094 74.1662 19.5906C74.1356 19.6542 74.1106 19.7205 74.0916 19.7887C74.0721 19.8576 74.0517 19.9283 74.0297 19.999C74.0208 20.0272 74.0165 20.0567 74.0169 20.0863C74.0176 20.116 74.013 20.1456 74.0034 20.1736C73.9996 20.189 73.9976 20.2049 73.9974 20.2207C73.9969 20.2367 73.9946 20.2525 73.9906 20.2679C73.9818 20.3175 73.9765 20.3676 73.9745 20.418C73.9745 20.4695 73.9745 20.5219 73.9745 20.576C73.9745 20.6074 73.9745 20.6397 73.9745 20.6729C73.9712 20.7019 73.9712 20.7312 73.9745 20.7602V20.8274C73.9831 20.858 73.9862 20.8899 73.9839 20.9217C73.9822 20.9531 73.9856 20.9847 73.994 21.015C74.0024 21.0409 74.0059 21.0682 74.0042 21.0953C74.0015 21.1202 74.0047 21.1454 74.0135 21.1687C74.0263 21.2271 74.0381 21.2839 74.0492 21.3432C74.0602 21.3987 74.0744 21.4535 74.0916 21.5073C74.1561 21.713 74.2529 21.9065 74.3782 22.0799C74.5018 22.2443 74.6594 22.3781 74.8396 22.4718C74.8991 22.5025 74.9613 22.5273 75.0253 22.546L75.2306 22.6054C75.2579 22.6146 75.2867 22.6182 75.3154 22.6159C75.3459 22.6139 75.3766 22.6171 75.4061 22.6255C75.4448 22.6319 75.484 22.6354 75.5232 22.6359C75.5647 22.6401 75.6066 22.6365 75.647 22.6255H75.6928C75.7099 22.622 75.7274 22.622 75.7445 22.6255C75.7624 22.6271 75.7803 22.6234 75.7963 22.615L75.9235 22.5914C75.9651 22.5852 76.0057 22.5729 76.0439 22.5548C76.2024 22.4933 76.3473 22.3998 76.4702 22.2799C76.5931 22.16 76.6915 22.016 76.7597 21.8565C76.7986 21.7629 76.8311 21.6666 76.8572 21.5684C76.8657 21.5283 76.8733 21.4864 76.8801 21.4436C76.8864 21.4021 76.9009 21.3623 76.9225 21.3267C76.934 21.3088 76.9494 21.294 76.9676 21.2835C76.9857 21.273 77.006 21.2672 77.0268 21.2664C77.0743 21.2664 77.1261 21.2603 77.1829 21.2603H77.2473C77.2673 21.26 77.2872 21.262 77.3067 21.2664H77.3525C77.366 21.2714 77.3799 21.275 77.3941 21.2769C77.4074 21.2781 77.42 21.2839 77.4297 21.2935C77.4457 21.3037 77.459 21.318 77.4682 21.3349C77.4774 21.3519 77.4822 21.371 77.4823 21.3904C77.4867 21.4368 77.4821 21.4837 77.4687 21.5283C77.4433 21.6304 77.4195 21.729 77.3975 21.8224C77.3763 21.9157 77.3435 22.0058 77.2999 22.0904C77.2649 22.1486 77.2335 22.2044 77.2058 22.258C77.177 22.3112 77.1456 22.3645 77.1117 22.4186C77.03 22.538 76.9324 22.645 76.8216 22.7363C76.7074 22.832 76.5817 22.9121 76.4476 22.9746C76.4023 22.996 76.3555 23.0138 76.3077 23.0278C76.2619 23.0418 76.2152 23.0567 76.1677 23.075C76.1203 23.0927 76.0711 23.105 76.021 23.1116L75.8683 23.1352C75.8499 23.1433 75.8299 23.1469 75.8098 23.1457C75.7925 23.1422 75.7746 23.1422 75.7572 23.1457C75.7315 23.1506 75.7054 23.153 75.6792 23.1527C75.6508 23.1529 75.6225 23.1553 75.5944 23.1596C75.5662 23.1633 75.5378 23.1633 75.5096 23.1596C75.4811 23.1589 75.4527 23.1554 75.4248 23.1492C75.4045 23.1462 75.384 23.1462 75.3637 23.1492C75.3433 23.1531 75.3223 23.1531 75.3018 23.1492H75.2365C75.2045 23.1411 75.1719 23.1355 75.139 23.1326C75.106 23.1301 75.0734 23.1246 75.0414 23.116C75.0024 23.1073 74.9634 23.0994 74.9244 23.0924C74.8865 23.0864 74.8493 23.0764 74.8133 23.0628C74.7277 23.0376 74.6447 23.0037 74.5657 22.9615C74.3054 22.8511 74.077 22.6738 73.9025 22.4465C73.7255 22.2082 73.589 21.9409 73.4988 21.6557C73.4812 21.6008 73.4671 21.5449 73.4564 21.4881C73.4462 21.4299 73.4343 21.3697 73.4207 21.3075C73.4125 21.2886 73.4093 21.2678 73.4114 21.2472C73.4142 21.2273 73.4142 21.207 73.4114 21.187C73.402 21.1452 73.3966 21.1025 73.3953 21.0596C73.3928 21.017 73.3872 20.9747 73.3783 20.933V20.8056C73.3614 20.7306 73.3614 20.6527 73.3783 20.5777C73.3826 20.5635 73.3826 20.5483 73.3783 20.5341C73.374 20.5223 73.374 20.5093 73.3783 20.4974V20.4294C73.3783 20.3936 73.386 20.3569 73.3885 20.3185C73.3905 20.2811 73.3959 20.244 73.4046 20.2077C73.4136 20.1795 73.4179 20.15 73.4173 20.1204C73.4177 20.0908 73.4223 20.0614 73.4309 20.0331C73.4521 19.9571 73.4699 19.8838 73.4826 19.8123C73.4956 19.7432 73.5152 19.6757 73.5412 19.6106C73.5632 19.553 73.5861 19.4937 73.6099 19.4361C73.6333 19.3788 73.6617 19.3239 73.6947 19.272C73.76 19.1559 73.8244 19.0511 73.8897 18.9577C73.9021 18.9355 73.9185 18.9159 73.9381 18.9001C73.9581 18.8849 73.9748 18.8656 73.9873 18.8434C74.0131 18.81 74.0414 18.7788 74.0721 18.75C74.1001 18.7229 74.1297 18.6959 74.1569 18.6697C74.184 18.6435 74.2078 18.626 74.2315 18.606C74.2553 18.5859 74.2824 18.565 74.3163 18.5423C74.3807 18.4937 74.4491 18.4511 74.5207 18.4148C74.5928 18.379 74.6674 18.3432 74.7455 18.3075C74.7944 18.2852 74.8456 18.2685 74.8981 18.2577C74.9521 18.2468 75.0054 18.2322 75.0576 18.2141L75.1424 18.201L75.2204 18.187C75.2552 18.187 75.2891 18.18 75.3213 18.1774C75.3535 18.1748 75.3875 18.1722 75.4222 18.1669C75.4326 18.1626 75.4441 18.1626 75.4545 18.1669C75.4606 18.1661 75.4664 18.1637 75.4714 18.1599Z" fill="#2B2945"/>
<path d="M80.7357 18.27H83.4233C83.4708 18.27 83.5192 18.27 83.5666 18.27C83.6079 18.266 83.6492 18.2768 83.6837 18.3005C83.6967 18.3092 83.7079 18.3205 83.7168 18.3337L83.7422 18.3738C83.7528 18.4234 83.7574 18.4741 83.7558 18.5248C83.757 18.5776 83.7525 18.6303 83.7422 18.6819C83.7372 18.7092 83.7238 18.734 83.7039 18.7528C83.684 18.7715 83.6588 18.7831 83.632 18.7858C83.5649 18.7934 83.4975 18.7969 83.4301 18.7963H81.6856C81.6169 18.7963 81.5355 18.7963 81.4422 18.7963C81.3718 18.789 81.3008 18.8017 81.2369 18.8329C81.2146 18.8481 81.1965 18.8691 81.1846 18.8938C81.1727 18.9185 81.1673 18.946 81.1691 18.9735C81.1691 19.0407 81.1691 19.1096 81.1691 19.1812V19.8638C81.1691 19.9135 81.1691 19.9711 81.1691 20.0384C81.1656 20.0921 81.169 20.1461 81.1793 20.199C81.1829 20.222 81.1919 20.2438 81.2055 20.2625C81.2191 20.2812 81.2368 20.2962 81.2573 20.3063C81.2864 20.3191 81.3168 20.3282 81.348 20.3334H81.4133C81.4316 20.3365 81.4502 20.3365 81.4685 20.3334C81.4891 20.332 81.5098 20.332 81.5304 20.3334H83.0273C83.0663 20.3334 83.1121 20.3334 83.157 20.3334C83.2059 20.3308 83.2549 20.3308 83.3037 20.3334C83.3538 20.3334 83.3987 20.3404 83.4403 20.3465C83.4731 20.351 83.505 20.3613 83.5344 20.377C83.5517 20.3927 83.5634 20.4139 83.5675 20.4372C83.576 20.4703 83.5825 20.5038 83.587 20.5376C83.59 20.5745 83.59 20.6116 83.587 20.6485C83.5851 20.6814 83.5795 20.7139 83.57 20.7454C83.5672 20.7635 83.5605 20.7807 83.5504 20.7958C83.5403 20.8109 83.527 20.8235 83.5115 20.8326C83.502 20.8425 83.4894 20.8487 83.4759 20.8501C83.4615 20.8518 83.4473 20.855 83.4335 20.8597H83.3945C83.3728 20.8632 83.3508 20.8632 83.3292 20.8597C83.3077 20.8584 83.2862 20.8584 83.2647 20.8597H81.6533C81.6016 20.8597 81.5507 20.8597 81.5007 20.8597C81.4539 20.8575 81.4071 20.8598 81.3607 20.8667C81.3212 20.8724 81.2828 20.8848 81.2471 20.9034C81.2302 20.9136 81.2155 20.9272 81.2039 20.9434C81.1922 20.9596 81.1838 20.978 81.1793 20.9976C81.1695 21.0277 81.166 21.0595 81.1691 21.091C81.1691 21.1268 81.1691 21.1626 81.1691 21.1984V22.21C81.1691 22.272 81.1691 22.3287 81.1759 22.3846C81.1758 22.4059 81.1804 22.4269 81.1893 22.4461C81.1983 22.4653 81.2114 22.4822 81.2276 22.4954C81.2582 22.5177 81.2944 22.5304 81.3319 22.5321C81.3709 22.5321 81.4167 22.5321 81.4617 22.5321H83.453C83.4878 22.5321 83.5226 22.5321 83.5573 22.5321C83.588 22.5289 83.6189 22.5325 83.6481 22.5426C83.6905 22.5528 83.7277 22.579 83.7524 22.6159C83.7631 22.6364 83.7698 22.659 83.7719 22.6822C83.7719 22.7136 83.7795 22.7459 83.7812 22.78C83.7846 22.8134 83.7846 22.847 83.7812 22.8804C83.7761 22.9135 83.7719 22.9397 83.7676 22.9572C83.7552 22.987 83.735 23.0127 83.7091 23.0314C83.679 23.05 83.6442 23.0591 83.6091 23.0575H80.846C80.7938 23.058 80.7416 23.0548 80.6899 23.0479C80.6701 23.0455 80.651 23.0385 80.6341 23.0275C80.6172 23.0164 80.603 23.0017 80.5924 22.9842C80.5737 22.9531 80.5645 22.9169 80.5661 22.8804V18.4567C80.564 18.4231 80.5733 18.3898 80.5924 18.3625C80.6036 18.3453 80.6179 18.3306 80.6347 18.3193C80.6514 18.3079 80.6702 18.3 80.6899 18.2961C80.6983 18.2927 80.7078 18.2927 80.7162 18.2961C80.7211 18.2935 80.7254 18.2898 80.7288 18.2853C80.7321 18.2807 80.7345 18.2755 80.7357 18.27Z" fill="#2B2945"/>
<path d="M29.3093 5.70328H30.2252C30.3386 5.70204 30.4519 5.70787 30.5645 5.72073C30.6115 5.728 30.6553 5.7496 30.6902 5.78275C30.7251 5.81589 30.7496 5.85905 30.7604 5.90665C30.7757 5.94607 30.7835 5.98815 30.7833 6.0306V7.9919C30.7833 8.12544 30.7833 8.27644 30.7714 8.44577C30.7563 8.57888 30.7846 8.7134 30.852 8.82808C30.8676 8.8495 30.8873 8.86738 30.9099 8.88059C30.9326 8.89381 30.9576 8.90208 30.9835 8.9049C31.0407 8.91002 31.0974 8.91994 31.1531 8.93457H33.3505C33.4879 8.93457 33.6295 8.93457 33.7745 8.92846C33.8323 8.93346 33.8903 8.92241 33.9425 8.89647C33.9948 8.87052 34.0393 8.83063 34.0714 8.78096C34.1151 8.68151 34.1312 8.57154 34.118 8.46324C34.1104 8.32184 34.1061 8.19614 34.1061 8.08616V6.55431C34.1061 6.43648 34.1061 6.29943 34.1002 6.14232C34.0943 5.9852 34.1214 5.87523 34.1748 5.81239C34.1917 5.78856 34.2131 5.76853 34.2378 5.75352C34.2624 5.73851 34.2898 5.72884 34.3182 5.7251C34.3993 5.70877 34.4815 5.69913 34.5641 5.69629C34.6557 5.69222 34.7473 5.69222 34.8389 5.69629C34.9305 5.69629 35.0085 5.70241 35.0789 5.70241C35.2087 5.70241 35.3444 5.7024 35.486 5.69629C35.5979 5.68307 35.7104 5.71429 35.8006 5.78358C35.8286 5.80664 35.8506 5.83651 35.8645 5.8705C35.8784 5.90449 35.8839 5.94151 35.8804 5.97822V13.7946C35.8848 13.834 35.8799 13.8739 35.866 13.9108C35.8521 13.9478 35.8297 13.9807 35.8006 14.0067C35.7064 14.0771 35.5898 14.1083 35.4741 14.094C35.3257 14.094 35.1858 14.0879 35.056 14.0879C34.9873 14.0879 34.9093 14.0879 34.8219 14.094C34.7346 14.1001 34.6464 14.0984 34.5582 14.094C34.4778 14.0912 34.3976 14.0834 34.3182 14.0704C34.2902 14.0694 34.2628 14.062 34.238 14.0487C34.2132 14.0355 34.1917 14.0166 34.1748 13.9936C34.146 13.9455 34.1283 13.8911 34.1231 13.8348C34.1121 13.7606 34.1045 13.682 34.1002 13.6C34.096 13.5179 34.1002 13.435 34.1002 13.3521C34.1002 13.2692 34.1061 13.1967 34.1061 13.1339V11.0844C34.106 11.0529 34.108 11.0214 34.1121 10.9901C34.1157 10.9586 34.1137 10.9267 34.1061 10.8959V10.778C34.0988 10.7552 34.095 10.7314 34.0951 10.7073C34.0949 10.6833 34.0909 10.6594 34.0833 10.6366C34.0553 10.5817 34.012 10.5366 33.9589 10.5072C33.9059 10.4778 33.8455 10.4655 33.7856 10.4717H31.0844C31.0233 10.4874 30.9733 10.5013 30.9351 10.5127C30.8921 10.5286 30.8558 10.5595 30.8325 10.6C30.8126 10.6568 30.7973 10.7152 30.7867 10.7745V10.8924C30.7785 10.937 30.7765 10.9825 30.7808 11.0277C30.7808 11.0792 30.7867 11.1237 30.7867 11.163V13.6838C30.7933 13.7906 30.7694 13.8971 30.718 13.9901C30.7012 14.0131 30.6796 14.032 30.6548 14.0452C30.63 14.0585 30.6026 14.066 30.5747 14.0669C30.4952 14.0799 30.4151 14.0877 30.3347 14.0905C30.2498 14.0949 30.1574 14.0949 30.0658 14.0905C29.9742 14.0861 29.8962 14.0844 29.825 14.0844C29.7181 14.0844 29.5883 14.0844 29.4357 14.0905C29.3251 14.1045 29.2131 14.0819 29.1159 14.0259C29.0837 13.9988 29.0577 13.9648 29.0399 13.9261C29.022 13.8875 29.0126 13.8453 29.0125 13.8025C29.0048 13.7003 29.0006 13.5939 29.0006 13.4839V6.0498C28.9966 5.97238 29.0127 5.89524 29.0473 5.82635C29.0649 5.79682 29.0881 5.7712 29.1155 5.75097C29.1429 5.73075 29.1739 5.71631 29.2067 5.70851C29.2241 5.70844 29.2415 5.7064 29.2584 5.70241C29.2754 5.7012 29.2924 5.70149 29.3093 5.70328Z" fill="#2B2945"/>
<path d="M49.1352 9.61449C49.1542 9.69329 49.1635 9.77421 49.1632 9.8554C49.1701 9.93641 49.1644 10.018 49.1462 10.0972V10.2499C49.1307 10.3316 49.123 10.4146 49.1233 10.4978C49.1234 10.5856 49.1157 10.6733 49.1004 10.7597C49.0851 10.8137 49.0737 10.8688 49.0665 10.9246C49.0585 10.9804 49.0469 11.0355 49.0317 11.0896C48.9935 11.231 48.9571 11.368 48.9232 11.5016C48.8889 11.6346 48.845 11.7647 48.7917 11.8909C48.5826 12.4118 48.2663 12.8799 47.8647 13.263C47.4469 13.6449 46.9557 13.9319 46.423 14.1053C46.3403 14.1363 46.2552 14.1599 46.1685 14.176L45.9141 14.2232C45.8758 14.2389 45.8349 14.2469 45.7937 14.2467C45.7536 14.2464 45.7135 14.2502 45.6741 14.2581L45.2958 14.2938C45.2429 14.3027 45.189 14.3048 45.1356 14.3C45.0857 14.2989 45.036 14.293 44.9871 14.2825C44.9513 14.2741 44.9143 14.272 44.8777 14.2764C44.8414 14.2799 44.8049 14.2778 44.7692 14.2703H44.6437C44.588 14.2557 44.5313 14.2457 44.474 14.2406C44.4169 14.2354 44.3602 14.2258 44.3044 14.2118C44.2434 14.1952 44.1823 14.1821 44.1212 14.1699C44.0602 14.1577 43.9991 14.1446 43.938 14.1289L43.6836 14.0346C43.5988 14.0032 43.514 13.9683 43.4292 13.9281C42.9921 13.7393 42.5968 13.4611 42.2673 13.1103C41.9409 12.7537 41.6793 12.3398 41.4947 11.8883C41.4479 11.7751 41.4096 11.6584 41.3802 11.5391C41.3496 11.4178 41.3149 11.2939 41.2767 11.1682C41.2631 11.1365 41.2553 11.1024 41.2538 11.0678C41.2536 11.0383 41.2499 11.009 41.2428 10.9805C41.2266 10.9234 41.215 10.865 41.208 10.8059C41.2001 10.7442 41.1888 10.683 41.1741 10.6226C41.1663 10.586 41.1643 10.5482 41.1682 10.5109C41.172 10.4765 41.1661 10.4416 41.1512 10.4105C41.1427 10.362 41.1427 10.3124 41.1512 10.2639C41.158 10.215 41.158 10.1653 41.1512 10.1164C41.1324 10.0576 41.1243 9.99575 41.1274 9.93396C41.1244 9.87188 41.1324 9.80974 41.1512 9.75066C41.158 9.71375 41.158 9.67585 41.1512 9.63893C41.1427 9.6022 41.1427 9.56394 41.1512 9.52721V9.45651C41.1658 9.40498 41.1715 9.35121 41.1682 9.29765C41.1639 9.2478 41.1697 9.19759 41.1851 9.15014C41.2004 9.11101 41.2081 9.06922 41.208 9.02706C41.2078 8.98462 41.2156 8.94253 41.2309 8.90311C41.2683 8.77309 41.2988 8.64111 41.3225 8.50772C41.346 8.37749 41.3803 8.24957 41.4251 8.12541C41.487 7.99187 41.5439 7.85831 41.5947 7.72477C41.6475 7.59276 41.7129 7.46646 41.7898 7.3477C42.0011 6.99136 42.2678 6.67317 42.5794 6.40589C42.9085 6.13534 43.275 5.91677 43.6667 5.75736C43.7689 5.71723 43.8741 5.6857 43.9813 5.66309C44.0924 5.63952 44.201 5.61246 44.3078 5.57581C44.3422 5.56092 44.3791 5.55292 44.4164 5.55224C44.4528 5.55218 44.4892 5.54839 44.5249 5.5409L44.8642 5.50598C44.8847 5.49801 44.9073 5.49801 44.9278 5.50598C44.9479 5.51424 44.9704 5.51424 44.9905 5.50598C45.466 5.48328 45.9418 5.54227 46.3984 5.68055C46.7778 5.80197 47.1367 5.98273 47.4627 6.21649C47.562 6.28719 47.6646 6.36835 47.7723 6.45826C47.87 6.5397 47.9583 6.63256 48.0352 6.73495C48.0734 6.77423 48.1115 6.81613 48.1497 6.8589C48.1879 6.90167 48.2218 6.94618 48.2532 6.98284C48.3363 7.10853 48.4211 7.23597 48.5076 7.36515C48.5928 7.49746 48.6658 7.63774 48.7255 7.78412C48.7713 7.8941 48.8104 7.99972 48.846 8.10184C48.8816 8.20397 48.9164 8.31395 48.9545 8.43178C48.9775 8.51104 48.9964 8.59143 49.0114 8.67268C49.0266 8.75997 49.0461 8.84027 49.069 8.92668C49.0834 8.97837 49.0911 9.03179 49.0919 9.08555C49.0914 9.13569 49.0992 9.18556 49.1148 9.23306C49.1298 9.28031 49.1356 9.33015 49.1318 9.3797C49.1275 9.42515 49.1295 9.47098 49.1377 9.51586L49.1352 9.61449ZM47.3601 10.1094C47.3784 10.0532 47.3864 9.99403 47.3839 9.93483C47.3866 9.87563 47.3785 9.81643 47.3601 9.76026V9.56037C47.3528 9.53191 47.3511 9.50225 47.355 9.47309C47.3575 9.44293 47.3516 9.41266 47.3381 9.3858C47.3229 9.32605 47.3133 9.26498 47.3092 9.20338C47.3056 9.14431 47.2959 9.0858 47.2804 9.02881C47.2796 8.98476 47.2718 8.94115 47.2575 8.89963L47.1888 8.63778C47.1652 8.54809 47.1346 8.46052 47.0972 8.37592C46.9418 7.99216 46.6912 7.65715 46.3704 7.40444C46.0538 7.15655 45.613 7.0326 45.0482 7.0326C45.0322 7.04089 45.0139 7.04305 44.9965 7.0387C44.9793 7.03442 44.9613 7.03659 44.9456 7.04482C44.9157 7.05261 44.8846 7.05438 44.854 7.05005C44.8186 7.04736 44.783 7.05366 44.7505 7.06839C44.6657 7.0841 44.5809 7.10156 44.5046 7.12076C44.4281 7.13936 44.3535 7.16507 44.2815 7.19757C43.9816 7.32224 43.7185 7.52533 43.5182 7.78674C43.3198 8.06121 43.1671 8.36768 43.0662 8.69364C43.044 8.77716 43.0268 8.86197 43.0145 8.94763C43.0028 9.03304 42.9858 9.1176 42.9636 9.20076C42.9562 9.22925 42.9522 9.25856 42.9517 9.28805C42.9515 9.3175 42.9478 9.34681 42.9407 9.37533C42.9247 9.41661 42.9205 9.46176 42.9288 9.50538C42.9365 9.54809 42.9365 9.59186 42.9288 9.63456C42.9089 9.70545 42.8995 9.77901 42.9008 9.85278C42.8935 9.92568 42.8993 9.99934 42.9178 10.0701V10.2002C42.925 10.2331 42.9287 10.2668 42.9288 10.3006C42.9288 10.3341 42.9328 10.3675 42.9407 10.4001C42.9406 10.4292 42.9423 10.4584 42.9458 10.4873C42.9499 10.5162 42.9519 10.5454 42.9517 10.5746C42.9747 10.6606 42.992 10.7481 43.0034 10.8365C43.0142 10.9212 43.0353 11.0042 43.0662 11.0835C43.147 11.326 43.2504 11.5598 43.3749 11.7818C43.4894 11.9881 43.6455 12.1667 43.8329 12.3055C43.8685 12.3426 43.9091 12.3743 43.9533 12.3998L44.0848 12.4705C44.1684 12.5255 44.2588 12.569 44.3536 12.5996C44.4494 12.6311 44.5504 12.6625 44.6572 12.6939C44.6916 12.7094 44.7292 12.7157 44.7666 12.7122C44.8029 12.7084 44.8395 12.7102 44.8752 12.7175C44.9195 12.7329 44.9659 12.7409 45.0126 12.7411H45.2526C45.2866 12.7336 45.3215 12.7315 45.3561 12.7349C45.3912 12.7384 45.4265 12.7324 45.4587 12.7175C45.535 12.7018 45.6113 12.6887 45.6877 12.6765C45.7628 12.6649 45.8361 12.6432 45.9056 12.6119C46.1981 12.5023 46.4622 12.3249 46.6774 12.0934C46.883 11.8502 47.0442 11.5708 47.1532 11.2686C47.192 11.178 47.2205 11.0831 47.238 10.9857C47.2569 10.8822 47.2818 10.7799 47.3126 10.6794L47.3465 10.3966C47.3542 10.364 47.3579 10.3306 47.3576 10.2971V10.0911L47.3601 10.1094Z" fill="#2B2945"/>
<path d="M54.6639 5.69105H55.6367C55.7215 5.69105 55.8063 5.69105 55.8826 5.70327C55.9161 5.70421 55.949 5.71194 55.9796 5.72602C56.0102 5.7401 56.0377 5.76025 56.0607 5.78532C56.1015 5.85898 56.1232 5.94228 56.1235 6.0271C56.1235 6.12486 56.1294 6.22523 56.1294 6.32735V10.3582C56.1294 10.3896 56.1294 10.4228 56.1235 10.4586C56.1194 10.4918 56.1214 10.5256 56.1294 10.5581V10.7466C56.1294 10.8173 56.1294 10.8924 56.1235 10.9709C56.1188 11.0421 56.1245 11.1136 56.1404 11.183C56.139 11.2264 56.143 11.2699 56.1523 11.3122C56.1676 11.3995 56.1803 11.4868 56.1922 11.5741C56.2036 11.6635 56.2247 11.7513 56.2549 11.8359C56.3292 12.0258 56.4403 12.198 56.5814 12.3422C56.734 12.4875 56.9159 12.5963 57.114 12.6608C57.1741 12.6763 57.235 12.6879 57.2964 12.6957C57.3581 12.7038 57.4193 12.7158 57.4796 12.7315C57.512 12.7464 57.5477 12.7524 57.583 12.7489C57.6174 12.7455 57.652 12.7476 57.6857 12.755C57.735 12.7638 57.7852 12.7656 57.8349 12.7603C57.8812 12.7603 57.9274 12.7544 57.9723 12.7428H58.1419C58.2023 12.7274 58.2634 12.7157 58.3251 12.7079C58.3825 12.7004 58.4392 12.6884 58.4948 12.6721C58.5825 12.6556 58.6679 12.628 58.7492 12.5901C58.8834 12.5291 59.0056 12.4433 59.1096 12.3369C59.2111 12.2325 59.2943 12.1109 59.3556 11.9773C59.445 11.7464 59.4952 11.5013 59.504 11.2529C59.5193 10.9741 59.5269 10.6855 59.5269 10.387V6.45915C59.5269 6.34918 59.5269 6.22785 59.5209 6.09431C59.5104 5.99146 59.5327 5.88787 59.5846 5.79928C59.6258 5.75091 59.6828 5.71984 59.7448 5.712C59.8206 5.69992 59.8972 5.69408 59.9738 5.69454H60.7066C60.7668 5.69454 60.8262 5.69454 60.8838 5.68843C60.941 5.68431 60.9984 5.69051 61.0535 5.70676C61.0938 5.71066 61.1329 5.72306 61.1683 5.74319C61.2038 5.76331 61.2348 5.79073 61.2595 5.82373C61.3012 5.90396 61.3192 5.99497 61.3113 6.08558C61.3113 6.19993 61.3053 6.30379 61.3053 6.39806V10.3582C61.3053 10.6567 61.3017 10.9477 61.2943 11.231C61.2902 11.4896 61.2555 11.7467 61.1909 11.9965C61.0974 12.3337 60.9608 12.6566 60.7846 12.9567C60.6183 13.2304 60.3981 13.4653 60.1384 13.6462C59.8819 13.8292 59.6003 13.9719 59.303 14.0696C59.2334 14.0933 59.1626 14.1131 59.091 14.1289L58.8789 14.176C58.8366 14.1911 58.7922 14.1991 58.7475 14.1996C58.7027 14.2001 58.6583 14.208 58.616 14.2232C58.5244 14.2389 58.421 14.2502 58.3065 14.2581C58.192 14.2659 58.0817 14.2703 57.9749 14.2703C57.2495 14.2784 56.6312 14.1862 56.1201 13.9936C55.6333 13.8202 55.2125 13.4923 54.9183 13.057C54.8211 12.9194 54.7386 12.7713 54.6724 12.6154C54.6039 12.4519 54.5445 12.2847 54.4943 12.1144C54.4812 12.0825 54.4738 12.0485 54.4722 12.014C54.4706 11.9794 54.4628 11.9454 54.4493 11.9136C54.3854 11.6719 54.3546 11.4222 54.3577 11.1717V6.00615C54.3553 5.94319 54.3669 5.8805 54.3917 5.82285C54.4403 5.76629 54.504 5.72562 54.5748 5.70588H54.6206C54.636 5.70434 54.6507 5.69927 54.6639 5.69105Z" fill="#2B2945"/>
<path d="M69.5676 5.52611C71.0484 5.50225 72.0661 5.9538 72.6208 6.88077C72.695 7.00264 72.7545 7.13336 72.798 7.27006C72.8396 7.40361 72.8828 7.5485 72.9184 7.70649C72.9346 7.77796 72.9403 7.8515 72.9354 7.9247C72.9366 7.98951 72.9186 8.05315 72.8837 8.10712C72.8425 8.15549 72.7854 8.18656 72.7234 8.19441C72.648 8.20686 72.5716 8.2127 72.4952 8.21187H71.5708C71.5134 8.21322 71.4562 8.20527 71.4012 8.1883C71.3604 8.17308 71.3237 8.14802 71.2941 8.11522C71.2646 8.08242 71.2432 8.04284 71.2316 7.99976C71.2077 7.91017 71.1771 7.82262 71.14 7.73791C71.1055 7.65183 71.0635 7.56915 71.0145 7.4909C70.9702 7.41422 70.9127 7.34648 70.8449 7.29101C70.7461 7.2175 70.643 7.15045 70.5361 7.09026C70.4264 7.04576 70.3128 7.01215 70.1969 6.98988C70.0608 6.9627 69.9231 6.94491 69.7847 6.93664C69.6453 6.9293 69.5054 6.93338 69.3666 6.94885C69.2407 6.96158 69.1172 6.99335 69.0002 7.04312C68.8478 7.10571 68.7095 7.19989 68.594 7.31981C68.4855 7.45674 68.4162 7.62208 68.3938 7.79727C68.3786 7.85673 68.3745 7.91866 68.382 7.97969C68.3868 8.03398 68.3985 8.08738 68.4167 8.13854C68.4601 8.28152 68.55 8.40479 68.6712 8.48768C68.7978 8.56214 68.9297 8.62691 69.0655 8.68147C69.1471 8.7199 69.2324 8.74916 69.32 8.76875C69.4109 8.78892 69.5006 8.81427 69.5888 8.84469C69.7946 8.9151 70.0064 8.9762 70.224 9.02799C70.4417 9.07977 70.6574 9.13796 70.8711 9.20256C70.9075 9.2179 70.9464 9.2259 70.9856 9.22612C71.0249 9.22635 71.0638 9.23435 71.1001 9.24969C71.2528 9.30468 71.4105 9.35531 71.5751 9.40332C71.731 9.44667 71.8797 9.51405 72.0161 9.60319C72.203 9.72257 72.3808 9.8565 72.5478 10.0038C72.711 10.1547 72.8519 10.3294 72.9659 10.5223C73.0059 10.589 73.0383 10.6602 73.0626 10.7344C73.0898 10.813 73.118 10.8915 73.1474 10.9701C73.1544 10.9909 73.1582 11.0127 73.1585 11.0347C73.1584 11.0531 73.1624 11.0713 73.1703 11.0879C73.2038 11.2426 73.2192 11.4008 73.2161 11.5593C73.2237 11.5778 73.2276 11.5977 73.2276 11.6177C73.2276 11.6378 73.2237 11.6577 73.2161 11.6762V11.8892C73.2009 11.9765 73.1873 12.0577 73.1754 12.1362C73.1641 12.216 73.1471 12.2947 73.1245 12.3719C73.082 12.5042 73.0322 12.6339 72.9753 12.7603C72.9209 12.8802 72.8559 12.9948 72.7811 13.1025C72.7533 13.1385 72.7227 13.1721 72.6895 13.2028C72.6561 13.231 72.6274 13.2646 72.6047 13.3023C72.5657 13.3505 72.5238 13.396 72.4791 13.4385C72.4319 13.4823 72.3823 13.5233 72.3307 13.5616C72.2917 13.593 72.2518 13.6244 72.2103 13.6558C72.1687 13.6873 72.1255 13.7187 72.078 13.7501C71.9505 13.8354 71.8146 13.9065 71.6726 13.9622C71.5307 14.0175 71.3837 14.0725 71.2316 14.1272C71.1242 14.1664 71.0125 14.1922 70.8991 14.204C70.7853 14.2156 70.672 14.2331 70.5599 14.2564C70.5099 14.2717 70.4576 14.2779 70.4055 14.2747C70.3571 14.2704 70.3083 14.2763 70.2622 14.2921H70.1715C70.1502 14.2913 70.1289 14.2893 70.1078 14.286C70.0868 14.2814 70.0649 14.2835 70.0451 14.2921C69.9808 14.3016 69.9158 14.3054 69.8509 14.3035C69.7857 14.3054 69.7204 14.3016 69.6558 14.2921H69.5413C69.4863 14.2758 69.4288 14.2699 69.3717 14.2747C69.3196 14.2788 69.2672 14.2726 69.2173 14.2564C69.1831 14.2566 69.1488 14.2548 69.1147 14.2511C69.0842 14.2511 69.0494 14.2407 69.0113 14.2328C68.9197 14.2101 68.8247 14.19 68.7255 14.1743C68.6318 14.1601 68.5398 14.1364 68.4507 14.1036C68.103 13.9909 67.7718 13.8303 67.466 13.6262C67.1788 13.429 66.9365 13.1699 66.7562 12.8668C66.6266 12.6603 66.5301 12.4336 66.4704 12.1956C66.4555 12.1494 66.4458 12.1017 66.4415 12.0533C66.4364 12.0016 66.4271 11.9505 66.4135 11.9005C66.3958 11.8252 66.3841 11.7484 66.3788 11.671C66.3728 11.6352 66.3738 11.5986 66.3817 11.5633C66.3895 11.5279 66.4041 11.4945 66.4246 11.465C66.4426 11.4342 66.4673 11.4081 66.4967 11.3887C66.5261 11.3694 66.5595 11.3572 66.5942 11.3533C66.6756 11.3403 66.7578 11.3342 66.8401 11.3349H67.7561C67.8186 11.3339 67.8807 11.3461 67.9384 11.3707C67.9775 11.387 68.0117 11.4134 68.0379 11.4473C68.0641 11.4813 68.0812 11.5217 68.0877 11.5645C68.1041 11.6595 68.1308 11.7523 68.1674 11.8412C68.1959 11.9328 68.2346 12.0206 68.2828 12.103C68.3275 12.1807 68.3771 12.2554 68.4312 12.3265C68.4691 12.3734 68.5111 12.4166 68.5567 12.4557C68.6004 12.4939 68.6463 12.5295 68.6941 12.5622C68.8863 12.6828 69.0946 12.7739 69.3123 12.8327C69.3625 12.8479 69.4144 12.8559 69.4667 12.8563C69.524 12.8569 69.5809 12.8648 69.6363 12.8799H69.694C69.8602 12.9113 70.0307 12.9113 70.1969 12.8799C70.2346 12.8705 70.2735 12.8667 70.3122 12.8685C70.3496 12.8607 70.3903 12.8546 70.4318 12.8502C70.4731 12.8468 70.5137 12.8371 70.5523 12.8214C70.7739 12.7684 70.9837 12.6724 71.1705 12.5386C71.3232 12.4222 71.43 12.2258 71.4911 11.9494C71.5066 11.8878 71.5083 11.8233 71.4962 11.7609C71.4886 11.7046 71.4752 11.6493 71.4563 11.5959C71.385 11.3902 71.2477 11.2156 71.0671 11.101C71.0265 11.0751 70.9846 11.0515 70.9415 11.0303C70.8213 10.9554 70.6921 10.8967 70.5573 10.8557C70.4166 10.8121 70.2775 10.7667 70.1401 10.7196C70.0866 10.7039 70.0349 10.6908 69.9857 10.6786L69.8161 10.6375C69.694 10.5982 69.5702 10.5651 69.4438 10.5371C69.3218 10.5113 69.2014 10.4777 69.0834 10.4368C69.0543 10.4237 69.0234 10.4158 68.9918 10.4132C68.9637 10.4123 68.9363 10.4042 68.912 10.3896C68.851 10.3739 68.7958 10.3582 68.7424 10.3434C68.689 10.3285 68.6373 10.312 68.5728 10.2954C68.3975 10.2325 68.2296 10.1679 68.069 10.1016C67.9146 10.0374 67.7655 9.96066 67.6229 9.87204C67.4477 9.75392 67.2864 9.61538 67.1421 9.45917C66.9981 9.30104 66.8832 9.1174 66.8028 8.91713C66.7726 8.84736 66.7496 8.77452 66.7341 8.69979C66.7189 8.62473 66.7002 8.54442 66.6773 8.45801C66.6582 8.35696 66.6469 8.25452 66.6434 8.15164C66.6342 8.0416 66.638 7.93083 66.6544 7.8217C66.6632 7.77514 66.6669 7.72771 66.6654 7.6803C66.6883 7.59301 66.7078 7.51184 66.7231 7.43328C66.7389 7.35273 66.7619 7.27385 66.7918 7.19762C66.8967 6.93941 67.0461 6.70285 67.2328 6.49934C67.42 6.30034 67.6292 6.12458 67.8562 5.97563C68.0108 5.88019 68.1763 5.80484 68.3489 5.7513C68.5236 5.69718 68.711 5.64568 68.9095 5.59855C68.9831 5.58332 69.0576 5.57341 69.1325 5.56887C69.2075 5.56503 69.282 5.55541 69.3556 5.54007C69.3914 5.53204 69.4284 5.53204 69.4641 5.54007C69.5184 5.54618 69.5523 5.54182 69.5676 5.52611Z" fill="#2B2945"/>
<path d="M78.6218 5.70337H83.8995C83.9902 5.70337 84.0784 5.70337 84.1624 5.71472C84.1978 5.71543 84.2326 5.72425 84.2643 5.74055C84.296 5.75686 84.3238 5.78024 84.3456 5.80898C84.3611 5.83364 84.3707 5.86177 84.3736 5.89102C84.378 5.92389 84.3877 5.95576 84.4024 5.9853V6.11535C84.4103 6.17317 84.4123 6.23168 84.4083 6.28992C84.4083 6.35277 84.4024 6.41212 84.4024 6.46449C84.4024 6.51686 84.4024 6.58756 84.4083 6.64692C84.4126 6.70515 84.4106 6.7637 84.4024 6.82149C84.3937 6.87922 84.39 6.93764 84.3914 6.99606C84.3857 7.03383 84.3726 7.07002 84.3529 7.10244C84.3333 7.13485 84.3074 7.1628 84.2769 7.1846C84.2261 7.21712 84.1671 7.23352 84.1073 7.23173H81.0287C80.9676 7.23173 80.8972 7.23173 80.8166 7.22562C80.7361 7.21951 80.6564 7.22562 80.5766 7.22562C80.5016 7.22923 80.4268 7.23739 80.3527 7.25006C80.3 7.25553 80.2492 7.27345 80.2043 7.30243C80.1772 7.323 80.1545 7.34914 80.1378 7.37919C80.121 7.40924 80.1104 7.44254 80.1068 7.477C80.095 7.56082 80.0893 7.64543 80.0898 7.73013V8.74351C80.1024 8.79724 80.1177 8.85026 80.1356 8.90236C80.1497 8.94454 80.178 8.98015 80.2153 9.00274C80.2632 9.03484 80.3186 9.05294 80.3756 9.05511C80.4367 9.05511 80.502 9.06123 80.5707 9.06123H83.1574C83.2108 9.06123 83.2778 9.06122 83.3575 9.05511C83.4373 9.049 83.5161 9.05511 83.5925 9.05511C83.6688 9.05511 83.7392 9.06559 83.8045 9.07345C83.8551 9.07645 83.9041 9.09267 83.947 9.12057C83.9699 9.13653 83.9893 9.1573 84.0039 9.18152C84.0186 9.20574 84.028 9.23286 84.0318 9.26111C84.0476 9.33694 84.057 9.41403 84.0598 9.49154C84.064 9.57586 84.064 9.66035 84.0598 9.74467C84.0598 9.83195 84.0547 9.90528 84.0547 9.96812V10.1331C84.0559 10.1813 84.0481 10.2293 84.0318 10.2745C84.0185 10.3347 83.9863 10.3886 83.9402 10.4281C83.8925 10.4547 83.8399 10.4707 83.7858 10.4752C83.7134 10.4833 83.6407 10.4871 83.5679 10.4866C83.4881 10.4866 83.4076 10.4866 83.3279 10.4814C83.2481 10.4761 83.1803 10.4752 83.1277 10.4752H80.8955C80.8039 10.4752 80.7157 10.4752 80.6318 10.4691C80.5532 10.4651 80.4745 10.4692 80.3968 10.4814C80.3315 10.49 80.2691 10.5142 80.2145 10.5521C80.1618 10.5909 80.1233 10.6469 80.1051 10.7109C80.0975 10.7515 80.0938 10.7927 80.0941 10.834V12.0656C80.0935 12.1503 80.0992 12.2349 80.111 12.3187C80.1146 12.3532 80.1251 12.3865 80.1419 12.4166C80.1587 12.4467 80.1814 12.4728 80.2086 12.4933C80.2313 12.5168 80.2613 12.5313 80.2934 12.5343C80.3306 12.5394 80.3671 12.5494 80.4019 12.564H80.5164C80.5581 12.5719 80.6006 12.5739 80.6428 12.5701C80.6886 12.5701 80.7276 12.564 80.7683 12.564H84.1853C84.2387 12.5629 84.2916 12.5749 84.3396 12.5989C84.3688 12.6095 84.3952 12.6267 84.4171 12.6492C84.439 12.6717 84.4557 12.699 84.466 12.729C84.4824 12.7743 84.4921 12.822 84.4948 12.8704C84.4948 12.9253 84.4999 12.9838 84.4999 13.0449V13.5878C84.4999 13.6821 84.4999 13.7703 84.4889 13.8497C84.4872 13.8864 84.477 13.9222 84.459 13.954C84.4409 13.9858 84.4157 14.0126 84.3854 14.0321C84.3351 14.0729 84.2722 14.0937 84.2082 14.0906H78.8228C78.7289 14.0917 78.6351 14.0859 78.542 14.0731C78.5061 14.0698 78.4714 14.058 78.4407 14.0386C78.41 14.0193 78.384 13.9928 78.3648 13.9614C78.3323 13.9066 78.3164 13.8431 78.319 13.779V5.99402C78.3158 5.9353 78.332 5.87719 78.3648 5.82905C78.3841 5.79881 78.409 5.77282 78.4381 5.75258C78.4672 5.73235 78.5 5.71829 78.5344 5.71122C78.5485 5.70366 78.5647 5.70149 78.5802 5.70511C78.5939 5.70908 78.6084 5.70847 78.6218 5.70337Z" fill="#2B2945"/>
</svg>
